<?xml version="1.0" encoding="UTF-8" standalone="no"?><!DOCTYPE svg PUBLIC "-//W3C//DTD SVG 1.1//EN" "http://www.w3.org/Graphics/SVG/1.1/DTD/svg11.dtd"><svg width="100%" height="100%" viewBox="0 0 128 128" version="1.1" xmlns="http://www.w3.org/2000/svg" xmlns:xlink="http://www.w3.org/1999/xlink" xml:space="preserve" xmlns:serif="http://www.serif.com/" style="fill-rule:evenodd;clip-rule:evenodd;stroke-linejoin:round;stroke-miterlimit:2;"><g><rect x="0" y="0" width="128" height="128" style="fill:#fff;"/><g><clipPath id="_clip1"><path d="M14.137,76.125c0,2.535 2.055,4.586 4.587,4.586c2.534,0 4.585,-2.051 4.585,-4.586c0,-2.531 -2.051,-4.585 -4.585,-4.585c-2.532,0 -4.587,2.054 -4.587,4.585Z"/></clipPath><g clip-path="url(#_clip1)"><path d="M20.697,68.985l5.17,9.113l-9.112,5.17l-5.17,-9.113l9.112,-5.17Z" style="fill:url(#_Linear2);fill-rule:nonzero;"/></g><clipPath id="_clip3"><path d="M68.427,63.651c0,10.414 8.474,18.889 18.888,18.889c2.199,0 4.313,-0.382 6.28,-1.075l-1.315,-1.325c-1.361,-1.353 -1.361,-3.544 0,-4.903c1.351,-1.353 3.543,-1.353 4.894,0l2.597,2.599c3.935,-3.468 6.43,-8.536 6.43,-14.185c0,-10.412 -8.472,-18.886 -18.886,-18.886c-10.414,0 -18.888,8.474 -18.888,18.886Zm11.671,-9.362c-0.244,-0.246 -0.442,-0.539 -0.58,-0.878c-0.547,-1.35 0.105,-2.884 1.455,-3.44c8.489,-3.438 18.193,0.669 21.634,9.16c0.544,1.35 -0.105,2.884 -1.458,3.44c-1.351,0.544 -2.885,-0.106 -3.438,-1.458c-2.348,-5.793 -8.967,-8.593 -14.756,-6.247c-0.324,0.131 -0.661,0.194 -0.991,0.194c-0.698,0 -1.373,-0.279 -1.866,-0.771Z"/></clipPath><g clip-path="url(#_clip3)"><path d="M95.437,34.253l19.816,34.929l-37.515,21.283l-19.815,-34.929l37.514,-21.283Z" style="fill:url(#_Linear4);fill-rule:nonzero;"/></g><clipPath id="_clip5"><path d="M69.607,32.845c-0.114,-0.008 -0.227,-0.016 -0.338,-0.016l-32.819,0c-2.519,0 -4.582,2.061 -4.582,4.58c0,2.53 2.063,4.593 4.582,4.593l16.176,0c1.255,0 2.295,1.031 2.295,2.296c0,0.632 -0.259,1.204 -0.674,1.612c-0.418,0.415 -0.989,0.675 -1.621,0.675l-41.085,0c-2.526,0 -4.589,2.061 -4.589,4.591c0,2.521 2.063,4.583 4.589,4.583l49.091,0c0.875,-0.084 1.81,-0.363 2.805,-0.778c3.456,-9.946 12.727,-16.895 23.878,-16.895c14.095,0 25.565,11.47 25.565,25.565c0,7.487 -3.239,14.226 -8.384,18.915l1.193,1.185c1.353,1.353 1.353,3.552 0,4.905c-0.673,0.674 -1.567,1.013 -2.45,1.013c-0.885,0 -1.777,-0.339 -2.454,-1.013l-2.111,-2.114c-3.423,1.708 -7.278,2.667 -11.359,2.667c-11.151,0 -20.422,-6.938 -23.869,-16.885c-0.995,-0.415 -1.939,-0.692 -2.814,-0.788l-30.202,0c-2.521,0 -4.583,2.069 -4.583,4.592c0,2.522 2.062,4.583 4.583,4.583l21.989,0c1.255,0 2.286,1.03 2.286,2.297c0,0.629 -0.26,1.204 -0.675,1.619c-0.408,0.415 -0.979,0.675 -1.611,0.675l-3.034,0c-2.521,0 -4.592,2.063 -4.592,4.584c0,2.52 2.071,4.583 4.592,4.583l20.248,0c5.059,2.814 10.88,4.417 17.084,4.417c19.458,0 35.235,-15.776 35.235,-35.235c0,-19.457 -15.777,-35.233 -35.235,-35.233c-6.212,0 -12.041,1.603 -17.11,4.427Z"/></clipPath><g clip-path="url(#_clip5)"><path d="M95.487,-2.468l46.104,81.266l-91.078,51.67l-46.104,-81.266l91.078,-51.67Z" style="fill:url(#_Linear6);fill-rule:nonzero;"/></g></g></g><defs><linearGradient id="_Linear2" x1="0" y1="0" x2="1" y2="0" gradientUnits="userSpaceOnUse" gradientTransform="matrix(2.56061,4.51353,-4.51353,2.56061,18.067,74.955)"><stop offset="0" style="stop-color:#f6b518;stop-opacity:1"/><stop offset="1" style="stop-color:#e84824;stop-opacity:1"/></linearGradient><linearGradient id="_Linear4" x1="0" y1="0" x2="1" y2="0" gradientUnits="userSpaceOnUse" gradientTransform="matrix(10.4607,18.4389,-18.4389,10.4607,84.537,58.744)"><stop offset="0" style="stop-color:#f6b518;stop-opacity:1"/><stop offset="1" style="stop-color:#e84824;stop-opacity:1"/></linearGradient><linearGradient id="_Linear6" x1="0" y1="0" x2="1" y2="0" gradientUnits="userSpaceOnUse" gradientTransform="matrix(24.5015,43.1882,-43.1882,24.5015,63.677,51.981)"><stop offset="0" style="stop-color:#f6b518;stop-opacity:1"/><stop offset="1" style="stop-color:#e84824;stop-opacity:1"/></linearGradient></defs></svg>